<?xml version="1.0" encoding="UTF-8"?>
<svg xmlns="http://www.w3.org/2000/svg" xmlns:xlink="http://www.w3.org/1999/xlink" width="343.807" height="246.961" viewBox="0 0 343.807 246.961">
<defs>
<g>
<g id="glyph-0-0">
<path d="M 5.859375 -6.078125 C 5.890625 -6.171875 5.890625 -6.203125 5.890625 -6.21875 C 5.890625 -6.234375 5.890625 -6.328125 5.78125 -6.328125 C 5.734375 -6.328125 5.734375 -6.3125 5.625 -6.1875 C 5.5 -6.046875 5.609375 -6.171875 5.1875 -5.6875 C 4.859375 -6.1875 4.34375 -6.328125 3.859375 -6.328125 C 2.703125 -6.328125 1.609375 -5.296875 1.609375 -4.21875 C 1.609375 -3.84375 1.734375 -3.546875 1.96875 -3.296875 C 2.21875 -3.015625 2.453125 -2.96875 3.09375 -2.796875 L 3.84375 -2.609375 C 4.140625 -2.515625 4.4375 -2.234375 4.4375 -1.71875 C 4.4375 -0.921875 3.671875 -0.078125 2.765625 -0.078125 C 2.25 -0.078125 1.171875 -0.234375 1.171875 -1.390625 C 1.171875 -1.46875 1.171875 -1.609375 1.234375 -1.875 C 1.25 -1.90625 1.25 -1.921875 1.25 -1.9375 C 1.25 -1.96875 1.234375 -2.03125 1.125 -2.03125 C 1.015625 -2.03125 1 -1.984375 0.96875 -1.84375 L 0.5 0.09375 C 0.5 0.15625 0.53125 0.203125 0.59375 0.203125 C 0.640625 0.203125 0.65625 0.1875 0.765625 0.0625 C 0.828125 0 1.078125 -0.328125 1.1875 -0.4375 C 1.65625 0.15625 2.484375 0.203125 2.75 0.203125 C 3.984375 0.203125 5.0625 -0.953125 5.0625 -2.09375 C 5.0625 -3.203125 4.1875 -3.421875 3.90625 -3.484375 L 3.09375 -3.703125 C 2.796875 -3.78125 2.25 -3.921875 2.25 -4.59375 C 2.25 -5.28125 2.96875 -6.078125 3.859375 -6.078125 C 4.21875 -6.078125 4.578125 -5.96875 4.828125 -5.71875 C 5.171875 -5.390625 5.171875 -4.90625 5.171875 -4.671875 C 5.171875 -4.375 5.140625 -4.28125 5.140625 -4.203125 C 5.140625 -4.140625 5.171875 -4.09375 5.265625 -4.09375 C 5.359375 -4.09375 5.359375 -4.109375 5.40625 -4.28125 Z M 5.859375 -6.078125 "/>
</g>
<g id="glyph-0-1">
<path d="M 4.375 -2.921875 C 4.421875 -3.15625 4.53125 -3.5625 4.53125 -3.609375 C 4.53125 -3.71875 4.453125 -3.859375 4.25 -3.859375 C 4.125 -3.859375 3.984375 -3.78125 3.921875 -3.671875 C 3.890625 -3.59375 3.28125 -1.15625 3.21875 -0.859375 C 3.03125 -0.53125 2.671875 -0.125 2.171875 -0.125 C 1.625 -0.125 1.625 -0.6875 1.625 -0.859375 C 1.625 -1.265625 1.734375 -1.703125 2.125 -2.703125 C 2.203125 -2.921875 2.25 -3.046875 2.25 -3.203125 C 2.25 -3.65625 1.921875 -3.96875 1.484375 -3.96875 C 0.625 -3.96875 0.265625 -2.6875 0.265625 -2.578125 C 0.265625 -2.5 0.328125 -2.46875 0.390625 -2.46875 C 0.484375 -2.46875 0.5 -2.53125 0.53125 -2.640625 C 0.71875 -3.296875 1.0625 -3.734375 1.453125 -3.734375 C 1.640625 -3.734375 1.671875 -3.609375 1.671875 -3.4375 C 1.671875 -3.296875 1.625 -3.125 1.546875 -2.921875 C 1.125 -1.796875 1.015625 -1.421875 1.015625 -1 C 1.015625 0 1.828125 0.09375 2.15625 0.09375 C 2.65625 0.09375 3.03125 -0.21875 3.25 -0.5 C 3.421875 0.09375 4.015625 0.09375 4.0625 0.09375 C 4.328125 0.09375 4.546875 -0.03125 4.734375 -0.375 C 4.890625 -0.671875 5.03125 -1.25 5.03125 -1.28125 C 5.03125 -1.328125 5 -1.390625 4.921875 -1.390625 C 4.8125 -1.390625 4.796875 -1.34375 4.765625 -1.171875 C 4.578125 -0.46875 4.390625 -0.125 4.09375 -0.125 C 3.875 -0.125 3.8125 -0.3125 3.8125 -0.53125 C 3.8125 -0.703125 3.859375 -0.890625 3.9375 -1.203125 L 4.15625 -2.125 Z M 4.375 -2.921875 "/>
</g>
<g id="glyph-0-2">
<path d="M 4.703125 -5.921875 C 4.734375 -6.046875 4.734375 -6.0625 4.734375 -6.09375 C 4.734375 -6.171875 4.6875 -6.21875 4.59375 -6.21875 C 4.46875 -6.21875 3.6875 -6.15625 3.5 -6.140625 C 3.421875 -6.125 3.3125 -6.109375 3.3125 -5.96875 C 3.3125 -5.84375 3.421875 -5.84375 3.5625 -5.84375 C 3.984375 -5.84375 3.984375 -5.78125 3.984375 -5.703125 C 3.984375 -5.640625 3.90625 -5.328125 3.859375 -5.140625 L 3.6875 -4.453125 C 3.59375 -4.109375 3.5 -3.765625 3.421875 -3.40625 C 3.25 -3.734375 2.984375 -3.96875 2.578125 -3.96875 C 1.53125 -3.96875 0.375 -2.71875 0.375 -1.359375 C 0.375 -0.375 1 0.09375 1.609375 0.09375 C 2.1875 0.09375 2.65625 -0.390625 2.8125 -0.5625 C 2.90625 -0.0625 3.359375 0.09375 3.640625 0.09375 C 3.90625 0.09375 4.125 -0.015625 4.328125 -0.390625 C 4.484375 -0.6875 4.609375 -1.25 4.609375 -1.28125 C 4.609375 -1.328125 4.578125 -1.390625 4.5 -1.390625 C 4.390625 -1.390625 4.375 -1.34375 4.34375 -1.171875 C 4.140625 -0.390625 3.953125 -0.125 3.671875 -0.125 C 3.4375 -0.125 3.390625 -0.34375 3.390625 -0.53125 C 3.390625 -0.65625 3.4375 -0.90625 3.4375 -0.9375 Z M 2.84375 -1.078125 C 2.8125 -0.9375 2.796875 -0.921875 2.65625 -0.75 C 2.328125 -0.359375 1.96875 -0.125 1.625 -0.125 C 1.1875 -0.125 1.046875 -0.578125 1.046875 -0.96875 C 1.046875 -1.40625 1.296875 -2.4375 1.515625 -2.875 C 1.796875 -3.40625 2.21875 -3.734375 2.578125 -3.734375 C 3.171875 -3.734375 3.3125 -3.015625 3.3125 -2.96875 C 3.3125 -2.921875 3.296875 -2.875 3.28125 -2.828125 Z M 2.84375 -1.078125 "/>
</g>
<g id="glyph-1-0">
<path d="M 3.21875 -1.109375 L 2.984375 -1.109375 C 2.984375 -1.03125 2.921875 -0.640625 2.828125 -0.578125 C 2.78125 -0.53125 2.296875 -0.53125 2.21875 -0.53125 L 1.109375 -0.53125 L 1.875 -1.15625 C 2.078125 -1.3125 2.609375 -1.703125 2.78125 -1.875 C 2.96875 -2.0625 3.21875 -2.359375 3.21875 -2.78125 C 3.21875 -3.53125 2.53125 -3.96875 1.734375 -3.96875 C 0.96875 -3.96875 0.4375 -3.46875 0.4375 -2.90625 C 0.4375 -2.59375 0.6875 -2.5625 0.75 -2.5625 C 0.90625 -2.5625 1.078125 -2.671875 1.078125 -2.890625 C 1.078125 -3.015625 1 -3.203125 0.734375 -3.203125 C 0.875 -3.515625 1.234375 -3.734375 1.640625 -3.734375 C 2.28125 -3.734375 2.609375 -3.265625 2.609375 -2.78125 C 2.609375 -2.359375 2.328125 -1.921875 1.90625 -1.546875 L 0.5 -0.25 C 0.4375 -0.1875 0.4375 -0.1875 0.4375 0 L 3.03125 0 Z M 3.21875 -1.109375 "/>
</g>
<g id="glyph-2-0">
<path d="M 0.78125 0.6875 C 0.828125 0.96875 0.84375 1.015625 0.5625 1.15625 C 0.46875 1.203125 0.375 1.234375 0.4375 1.375 C 0.46875 1.4375 0.546875 1.453125 0.578125 1.4375 C 0.65625 1.40625 0.671875 1.359375 1.203125 1.109375 C 1.71875 0.875 1.890625 0.828125 1.9375 0.796875 C 1.96875 0.78125 2.0625 0.734375 2 0.578125 C 1.953125 0.484375 1.859375 0.53125 1.78125 0.578125 C 1.4375 0.734375 1.421875 0.6875 1.390625 0.625 C 1.359375 0.578125 1.25 0.015625 1.0625 -0.9375 C 1.234375 -0.8125 1.578125 -0.65625 1.96875 -0.828125 C 2.859375 -1.25 3.296875 -2.71875 2.8125 -3.765625 C 2.46875 -4.484375 1.796875 -4.71875 1.21875 -4.453125 C 0.78125 -4.25 0.578125 -3.78125 0.453125 -3.484375 C 0.0625 -3.90625 -0.40625 -3.6875 -0.484375 -3.65625 C -0.734375 -3.53125 -0.84375 -3.296875 -0.84375 -3 C -0.859375 -2.59375 -0.765625 -2.1875 -0.765625 -2.171875 C -0.734375 -2.09375 -0.671875 -2.109375 -0.609375 -2.140625 C -0.515625 -2.1875 -0.53125 -2.203125 -0.5625 -2.4375 C -0.65625 -2.84375 -0.71875 -3.3125 -0.421875 -3.453125 C -0.234375 -3.53125 -0.09375 -3.390625 -0.015625 -3.21875 C 0.015625 -3.15625 0.078125 -2.953125 0.09375 -2.890625 Z M 0.65625 -3.015625 C 0.625 -3.171875 0.625 -3.1875 0.671875 -3.359375 C 0.796875 -3.8125 1.03125 -4.125 1.28125 -4.25 C 1.640625 -4.421875 1.9375 -4.125 2.078125 -3.796875 C 2.21875 -3.53125 2.4375 -2.671875 2.421875 -2.15625 C 2.40625 -1.6875 2.21875 -1.203125 1.875 -1.03125 C 1.390625 -0.8125 1 -1.3125 0.96875 -1.375 C 0.96875 -1.390625 0.953125 -1.46875 0.953125 -1.5 Z M 0.65625 -3.015625 "/>
</g>
<g id="glyph-3-0">
<path d="M 4.4375 -3.53125 C 4.53125 -3.734375 4.515625 -3.734375 4.3125 -3.828125 C 3.875 -3.671875 3.421875 -3.703125 2.734375 -4.015625 L 2.625 -3.765625 C 2.828125 -3.671875 3.203125 -3.5 3.71875 -3.484375 L 1.984375 0.203125 C 1.859375 0.46875 1.78125 0.546875 1.09375 0.234375 L 0.84375 0.109375 L 0.734375 0.34375 C 1.046875 0.453125 1.671875 0.75 2 0.90625 C 2.3125 1.0625 2.9375 1.34375 3.21875 1.515625 L 3.328125 1.28125 L 3.078125 1.171875 C 2.390625 0.84375 2.421875 0.734375 2.546875 0.46875 Z M 4.4375 -3.53125 "/>
</g>
<g id="glyph-4-0">
<path d="M 5.8125 0.734375 C 5.9375 0.796875 6.09375 0.875 6.15625 0.71875 C 6.234375 0.546875 6.078125 0.46875 5.953125 0.40625 L 1.828125 -1.546875 C 1.71875 -1.59375 1.5625 -1.671875 1.484375 -1.5 C 1.421875 -1.34375 1.578125 -1.265625 1.6875 -1.21875 Z M 5.8125 0.734375 "/>
</g>
<g id="glyph-5-0">
<path d="M -0.03125 1.0625 C -0.203125 1.25 -0.25 1.296875 -0.53125 1.15625 C -0.625 1.109375 -0.71875 1.078125 -0.78125 1.21875 C -0.8125 1.28125 -0.765625 1.359375 -0.734375 1.375 C -0.65625 1.40625 -0.609375 1.390625 -0.078125 1.640625 C 0.4375 1.875 0.578125 1.984375 0.625 2.015625 C 0.65625 2.03125 0.75 2.078125 0.8125 1.921875 C 0.859375 1.828125 0.765625 1.78125 0.6875 1.734375 C 0.34375 1.578125 0.359375 1.53125 0.390625 1.46875 C 0.421875 1.421875 0.78125 0.984375 1.40625 0.21875 C 1.421875 0.4375 1.515625 0.8125 1.90625 0.984375 C 2.796875 1.40625 4.203125 0.8125 4.6875 -0.234375 C 5.03125 -0.953125 4.796875 -1.625 4.21875 -1.890625 C 3.78125 -2.09375 3.296875 -1.96875 2.984375 -1.859375 C 3.0625 -2.4375 2.59375 -2.65625 2.515625 -2.6875 C 2.265625 -2.8125 2 -2.734375 1.78125 -2.5625 C 1.453125 -2.3125 1.203125 -2 1.203125 -1.984375 C 1.171875 -1.90625 1.203125 -1.859375 1.265625 -1.828125 C 1.359375 -1.78125 1.375 -1.796875 1.53125 -1.96875 C 1.78125 -2.3125 2.09375 -2.65625 2.390625 -2.515625 C 2.578125 -2.4375 2.5625 -2.234375 2.484375 -2.0625 C 2.453125 -2 2.328125 -1.828125 2.28125 -1.765625 Z M 2.75 -1.421875 C 2.84375 -1.515625 2.84375 -1.53125 3.015625 -1.609375 C 3.453125 -1.8125 3.84375 -1.84375 4.09375 -1.71875 C 4.453125 -1.546875 4.40625 -1.125 4.265625 -0.796875 C 4.125 -0.53125 3.625 0.171875 3.203125 0.5 C 2.84375 0.78125 2.34375 0.953125 2 0.78125 C 1.515625 0.5625 1.65625 -0.0625 1.6875 -0.125 C 1.6875 -0.140625 1.734375 -0.1875 1.765625 -0.21875 Z M 2.75 -1.421875 "/>
</g>
<g id="glyph-6-0">
<path d="M 0.765625 0.71875 C 0.796875 0.984375 0.796875 1.046875 0.515625 1.171875 C 0.40625 1.203125 0.328125 1.25 0.390625 1.40625 C 0.421875 1.453125 0.5 1.46875 0.53125 1.453125 C 0.609375 1.421875 0.625 1.375 1.171875 1.140625 C 1.6875 0.921875 1.859375 0.890625 1.921875 0.859375 C 1.953125 0.859375 2.046875 0.8125 1.984375 0.671875 C 1.9375 0.5625 1.84375 0.609375 1.75 0.640625 C 1.40625 0.78125 1.390625 0.75 1.359375 0.671875 C 1.34375 0.625 1.25 0.0625 1.09375 -0.890625 C 1.28125 -0.765625 1.609375 -0.59375 2 -0.765625 C 2.90625 -1.140625 3.40625 -2.59375 2.953125 -3.65625 C 2.640625 -4.390625 1.96875 -4.65625 1.390625 -4.40625 C 0.9375 -4.21875 0.71875 -3.78125 0.59375 -3.46875 C 0.21875 -3.90625 -0.265625 -3.703125 -0.34375 -3.671875 C -0.59375 -3.5625 -0.703125 -3.3125 -0.734375 -3.03125 C -0.765625 -2.625 -0.6875 -2.21875 -0.671875 -2.203125 C -0.65625 -2.140625 -0.59375 -2.125 -0.53125 -2.15625 C -0.421875 -2.203125 -0.4375 -2.234375 -0.46875 -2.453125 C -0.53125 -2.875 -0.59375 -3.328125 -0.296875 -3.453125 C -0.109375 -3.53125 0.03125 -3.390625 0.109375 -3.21875 C 0.140625 -3.15625 0.1875 -2.953125 0.1875 -2.890625 Z M 0.765625 -2.984375 C 0.75 -3.140625 0.75 -3.15625 0.8125 -3.328125 C 0.9375 -3.78125 1.171875 -4.078125 1.4375 -4.1875 C 1.8125 -4.34375 2.09375 -4.046875 2.234375 -3.71875 C 2.359375 -3.453125 2.53125 -2.59375 2.5 -2.0625 C 2.46875 -1.59375 2.25 -1.109375 1.90625 -0.96875 C 1.421875 -0.75 1.0625 -1.28125 1.03125 -1.34375 C 1.03125 -1.359375 1 -1.421875 1 -1.46875 Z M 0.765625 -2.984375 "/>
</g>
<g id="glyph-7-0">
<path d="M 4.28125 -3.6875 C 4.375 -3.890625 4.359375 -3.90625 4.15625 -3.984375 C 3.734375 -3.84375 3.265625 -3.828125 2.578125 -4.125 L 2.46875 -3.875 C 2.671875 -3.78125 3.0625 -3.625 3.5625 -3.625 L 1.96875 0.125 C 1.859375 0.40625 1.8125 0.46875 1.109375 0.171875 L 0.859375 0.0625 L 0.75 0.3125 C 1.0625 0.421875 1.703125 0.6875 2.03125 0.828125 C 2.359375 0.96875 3 1.234375 3.28125 1.390625 L 3.390625 1.140625 L 3.125 1.03125 C 2.4375 0.734375 2.4375 0.65625 2.546875 0.375 Z M 4.28125 -3.6875 "/>
</g>
<g id="glyph-8-0">
<path d="M 5.828125 0.5 C 5.953125 0.5625 6.109375 0.625 6.1875 0.46875 C 6.25 0.296875 6.09375 0.234375 5.96875 0.171875 L 1.765625 -1.609375 C 1.65625 -1.65625 1.484375 -1.71875 1.421875 -1.546875 C 1.34375 -1.390625 1.515625 -1.328125 1.625 -1.28125 Z M 5.828125 0.5 "/>
</g>
<g id="glyph-9-0">
<path d="M 0.015625 1.0625 C -0.171875 1.265625 -0.203125 1.296875 -0.484375 1.171875 C -0.59375 1.140625 -0.671875 1.09375 -0.734375 1.25 C -0.765625 1.296875 -0.71875 1.375 -0.6875 1.390625 C -0.609375 1.421875 -0.5625 1.40625 -0.015625 1.640625 C 0.5 1.859375 0.640625 1.953125 0.703125 1.984375 C 0.734375 1.984375 0.828125 2.03125 0.890625 1.890625 C 0.9375 1.78125 0.84375 1.734375 0.75 1.703125 C 0.40625 1.5625 0.421875 1.53125 0.453125 1.453125 C 0.46875 1.40625 0.8125 0.9375 1.40625 0.171875 C 1.4375 0.390625 1.546875 0.75 1.9375 0.921875 C 2.84375 1.296875 4.21875 0.65625 4.671875 -0.40625 C 4.984375 -1.140625 4.71875 -1.8125 4.140625 -2.0625 C 3.6875 -2.25 3.21875 -2.09375 2.90625 -1.96875 C 2.96875 -2.5625 2.484375 -2.765625 2.40625 -2.796875 C 2.15625 -2.90625 1.890625 -2.8125 1.671875 -2.625 C 1.359375 -2.375 1.125 -2.03125 1.109375 -2.015625 C 1.09375 -1.953125 1.125 -1.90625 1.1875 -1.875 C 1.296875 -1.828125 1.3125 -1.859375 1.4375 -2.046875 C 1.6875 -2.375 2 -2.734375 2.296875 -2.609375 C 2.484375 -2.53125 2.46875 -2.328125 2.390625 -2.15625 C 2.359375 -2.09375 2.25 -1.921875 2.21875 -1.859375 Z M 2.671875 -1.515625 C 2.78125 -1.640625 2.78125 -1.65625 2.96875 -1.734375 C 3.375 -1.9375 3.765625 -1.984375 4.03125 -1.875 C 4.40625 -1.71875 4.375 -1.296875 4.234375 -0.96875 C 4.109375 -0.703125 3.625 0.03125 3.21875 0.375 C 2.875 0.6875 2.375 0.859375 2.03125 0.71875 C 1.546875 0.5 1.65625 -0.125 1.6875 -0.1875 C 1.6875 -0.203125 1.71875 -0.265625 1.75 -0.28125 Z M 2.671875 -1.515625 "/>
</g>
<g id="glyph-10-0">
<path d="M 0.765625 0.71875 C 0.796875 0.984375 0.796875 1.046875 0.515625 1.171875 C 0.40625 1.203125 0.328125 1.25 0.390625 1.40625 C 0.421875 1.453125 0.5 1.46875 0.53125 1.453125 C 0.609375 1.421875 0.625 1.375 1.171875 1.140625 C 1.6875 0.921875 1.859375 0.890625 1.921875 0.859375 C 1.953125 0.859375 2.046875 0.8125 1.984375 0.671875 C 1.9375 0.5625 1.84375 0.609375 1.75 0.640625 C 1.40625 0.78125 1.390625 0.75 1.359375 0.671875 C 1.34375 0.625 1.25 0.0625 1.09375 -0.890625 C 1.28125 -0.765625 1.609375 -0.59375 2 -0.765625 C 2.90625 -1.140625 3.40625 -2.59375 2.953125 -3.65625 C 2.640625 -4.390625 1.96875 -4.65625 1.390625 -4.40625 C 0.9375 -4.21875 0.71875 -3.78125 0.59375 -3.46875 C 0.21875 -3.90625 -0.265625 -3.703125 -0.34375 -3.671875 C -0.59375 -3.5625 -0.703125 -3.3125 -0.734375 -3.03125 C -0.765625 -2.625 -0.6875 -2.21875 -0.671875 -2.203125 C -0.65625 -2.140625 -0.59375 -2.125 -0.53125 -2.15625 C -0.421875 -2.203125 -0.4375 -2.234375 -0.46875 -2.453125 C -0.53125 -2.875 -0.59375 -3.328125 -0.296875 -3.453125 C -0.109375 -3.53125 0.03125 -3.390625 0.109375 -3.21875 C 0.140625 -3.15625 0.1875 -2.953125 0.1875 -2.890625 Z M 0.765625 -2.984375 C 0.75 -3.140625 0.75 -3.15625 0.8125 -3.328125 C 0.9375 -3.78125 1.171875 -4.078125 1.4375 -4.1875 C 1.8125 -4.34375 2.09375 -4.046875 2.234375 -3.71875 C 2.359375 -3.453125 2.53125 -2.59375 2.5 -2.0625 C 2.46875 -1.59375 2.25 -1.109375 1.90625 -0.96875 C 1.421875 -0.75 1.0625 -1.28125 1.03125 -1.34375 C 1.03125 -1.359375 1 -1.421875 1 -1.46875 Z M 0.765625 -2.984375 "/>
</g>
<g id="glyph-11-0">
<path d="M 4.28125 -3.6875 C 4.375 -3.890625 4.359375 -3.90625 4.15625 -3.984375 C 3.734375 -3.84375 3.265625 -3.828125 2.578125 -4.125 L 2.46875 -3.875 C 2.671875 -3.78125 3.0625 -3.625 3.5625 -3.625 L 1.96875 0.125 C 1.859375 0.40625 1.8125 0.46875 1.109375 0.171875 L 0.859375 0.0625 L 0.75 0.3125 C 1.0625 0.421875 1.703125 0.6875 2.03125 0.828125 C 2.359375 0.96875 3 1.234375 3.28125 1.390625 L 3.390625 1.140625 L 3.125 1.03125 C 2.4375 0.734375 2.4375 0.65625 2.546875 0.375 Z M 4.28125 -3.6875 "/>
</g>
<g id="glyph-12-0">
<path d="M 5.828125 0.5 C 5.953125 0.5625 6.109375 0.625 6.1875 0.46875 C 6.25 0.296875 6.09375 0.234375 5.96875 0.171875 L 1.765625 -1.609375 C 1.65625 -1.65625 1.484375 -1.71875 1.421875 -1.546875 C 1.34375 -1.390625 1.515625 -1.328125 1.625 -1.28125 Z M 5.828125 0.5 "/>
</g>
<g id="glyph-13-0">
<path d="M 0.015625 1.0625 C -0.171875 1.265625 -0.203125 1.296875 -0.484375 1.171875 C -0.59375 1.140625 -0.671875 1.09375 -0.734375 1.25 C -0.765625 1.296875 -0.71875 1.375 -0.6875 1.390625 C -0.609375 1.421875 -0.5625 1.40625 -0.015625 1.640625 C 0.5 1.859375 0.640625 1.953125 0.703125 1.984375 C 0.734375 1.984375 0.828125 2.03125 0.890625 1.890625 C 0.9375 1.78125 0.84375 1.734375 0.75 1.703125 C 0.40625 1.5625 0.421875 1.53125 0.453125 1.453125 C 0.46875 1.40625 0.8125 0.9375 1.40625 0.171875 C 1.4375 0.390625 1.546875 0.75 1.9375 0.921875 C 2.84375 1.296875 4.21875 0.65625 4.671875 -0.40625 C 4.984375 -1.140625 4.71875 -1.8125 4.140625 -2.0625 C 3.6875 -2.25 3.21875 -2.09375 2.90625 -1.96875 C 2.96875 -2.5625 2.484375 -2.765625 2.40625 -2.796875 C 2.15625 -2.90625 1.890625 -2.8125 1.671875 -2.625 C 1.359375 -2.375 1.125 -2.03125 1.109375 -2.015625 C 1.09375 -1.953125 1.125 -1.90625 1.1875 -1.875 C 1.296875 -1.828125 1.3125 -1.859375 1.4375 -2.046875 C 1.6875 -2.375 2 -2.734375 2.296875 -2.609375 C 2.484375 -2.53125 2.46875 -2.328125 2.390625 -2.15625 C 2.359375 -2.09375 2.25 -1.921875 2.21875 -1.859375 Z M 2.671875 -1.515625 C 2.78125 -1.640625 2.78125 -1.65625 2.96875 -1.734375 C 3.375 -1.9375 3.765625 -1.984375 4.03125 -1.875 C 4.40625 -1.71875 4.375 -1.296875 4.234375 -0.96875 C 4.109375 -0.703125 3.625 0.03125 3.21875 0.375 C 2.875 0.6875 2.375 0.859375 2.03125 0.71875 C 1.546875 0.5 1.65625 -0.125 1.6875 -0.1875 C 1.6875 -0.203125 1.71875 -0.265625 1.75 -0.28125 Z M 2.671875 -1.515625 "/>
</g>
<g id="glyph-14-0">
<path d="M 0.421875 0.96875 C 0.34375 1.21875 0.328125 1.28125 0.015625 1.28125 C -0.09375 1.28125 -0.1875 1.28125 -0.1875 1.4375 C -0.1875 1.5 -0.125 1.546875 -0.078125 1.546875 C 0 1.546875 0.03125 1.515625 0.625 1.515625 C 1.1875 1.515625 1.359375 1.546875 1.421875 1.546875 C 1.453125 1.546875 1.5625 1.546875 1.5625 1.390625 C 1.5625 1.28125 1.453125 1.28125 1.359375 1.28125 C 0.984375 1.28125 0.984375 1.234375 0.984375 1.15625 C 0.984375 1.109375 1.125 0.546875 1.359375 -0.390625 C 1.46875 -0.203125 1.71875 0.078125 2.140625 0.078125 C 3.125 0.078125 4.140625 -1.046875 4.140625 -2.203125 C 4.140625 -3 3.640625 -3.515625 3 -3.515625 C 2.515625 -3.515625 2.140625 -3.1875 1.90625 -2.953125 C 1.734375 -3.515625 1.203125 -3.515625 1.125 -3.515625 C 0.84375 -3.515625 0.640625 -3.328125 0.515625 -3.078125 C 0.328125 -2.71875 0.234375 -2.3125 0.234375 -2.296875 C 0.234375 -2.21875 0.296875 -2.1875 0.359375 -2.1875 C 0.46875 -2.1875 0.46875 -2.21875 0.53125 -2.4375 C 0.625 -2.84375 0.765625 -3.296875 1.09375 -3.296875 C 1.296875 -3.296875 1.359375 -3.109375 1.359375 -2.921875 C 1.359375 -2.84375 1.328125 -2.640625 1.3125 -2.578125 Z M 1.875 -2.453125 C 1.921875 -2.59375 1.921875 -2.609375 2.046875 -2.75 C 2.34375 -3.109375 2.6875 -3.296875 2.96875 -3.296875 C 3.375 -3.296875 3.515625 -2.90625 3.515625 -2.546875 C 3.515625 -2.25 3.34375 -1.390625 3.109375 -0.921875 C 2.90625 -0.5 2.515625 -0.140625 2.140625 -0.140625 C 1.609375 -0.140625 1.46875 -0.765625 1.46875 -0.828125 C 1.46875 -0.84375 1.484375 -0.921875 1.5 -0.953125 Z M 1.875 -2.453125 "/>
</g>
<g id="glyph-14-1">
<path d="M 1.765625 -3.171875 L 2.546875 -3.171875 C 2.6875 -3.171875 2.78125 -3.171875 2.78125 -3.328125 C 2.78125 -3.4375 2.6875 -3.4375 2.546875 -3.4375 L 1.828125 -3.4375 L 2.109375 -4.5625 C 2.140625 -4.6875 2.140625 -4.71875 2.140625 -4.734375 C 2.140625 -4.90625 2.015625 -4.984375 1.875 -4.984375 C 1.609375 -4.984375 1.546875 -4.765625 1.46875 -4.40625 L 1.21875 -3.4375 L 0.453125 -3.4375 C 0.296875 -3.4375 0.203125 -3.4375 0.203125 -3.28125 C 0.203125 -3.171875 0.296875 -3.171875 0.4375 -3.171875 L 1.15625 -3.171875 L 0.671875 -1.265625 C 0.625 -1.0625 0.5625 -0.78125 0.5625 -0.671875 C 0.5625 -0.1875 0.953125 0.078125 1.375 0.078125 C 2.21875 0.078125 2.703125 -1.046875 2.703125 -1.140625 C 2.703125 -1.234375 2.640625 -1.25 2.59375 -1.25 C 2.5 -1.25 2.5 -1.21875 2.4375 -1.09375 C 2.28125 -0.703125 1.875 -0.140625 1.390625 -0.140625 C 1.234375 -0.140625 1.125 -0.25 1.125 -0.515625 C 1.125 -0.671875 1.15625 -0.75 1.171875 -0.859375 Z M 1.765625 -3.171875 "/>
</g>
<g id="glyph-14-2">
<path d="M 1.625 -0.4375 C 1.625 -0.703125 1.390625 -0.890625 1.171875 -0.890625 C 0.921875 -0.890625 0.734375 -0.671875 0.734375 -0.453125 C 0.734375 -0.171875 0.953125 0 1.171875 0 C 1.421875 0 1.625 -0.203125 1.625 -0.4375 Z M 1.625 -0.4375 "/>
</g>
<g id="glyph-15-0">
<path d="M 3.109375 -3.59375 C 3.15625 -3.78125 3.15625 -3.796875 3.40625 -3.796875 L 3.953125 -3.796875 C 4.59375 -3.796875 4.6875 -3.609375 4.6875 -3.265625 C 4.6875 -3.1875 4.671875 -3.015625 4.65625 -2.828125 C 4.640625 -2.8125 4.625 -2.75 4.625 -2.734375 C 4.625 -2.671875 4.671875 -2.640625 4.75 -2.640625 C 4.84375 -2.640625 4.859375 -2.703125 4.859375 -2.78125 L 5.03125 -3.9375 C 5.03125 -4.03125 4.953125 -4.03125 4.84375 -4.03125 L 0.96875 -4.03125 C 0.8125 -4.03125 0.796875 -4.03125 0.75 -3.90625 L 0.359375 -2.828125 C 0.34375 -2.75 0.34375 -2.734375 0.34375 -2.734375 C 0.34375 -2.703125 0.34375 -2.640625 0.453125 -2.640625 C 0.53125 -2.640625 0.53125 -2.65625 0.59375 -2.8125 C 0.859375 -3.546875 1.046875 -3.796875 1.8125 -3.796875 L 2.359375 -3.796875 C 2.46875 -3.796875 2.484375 -3.796875 2.546875 -3.78125 L 1.75 -0.515625 C 1.703125 -0.34375 1.671875 -0.296875 1.515625 -0.265625 C 1.34375 -0.234375 1 -0.234375 0.984375 -0.234375 C 0.828125 -0.234375 0.828125 -0.234375 0.796875 -0.21875 C 0.765625 -0.203125 0.75 -0.109375 0.75 -0.078125 C 0.75 -0.078125 0.765625 0 0.859375 0 C 1.015625 0 1.203125 -0.015625 1.359375 -0.015625 C 1.59375 -0.015625 1.75 -0.03125 1.921875 -0.03125 C 2.09375 -0.03125 2.28125 -0.015625 2.453125 -0.015625 C 2.625 -0.015625 2.8125 0 2.984375 0 C 3.03125 0 3.078125 0 3.109375 -0.046875 C 3.109375 -0.0625 3.140625 -0.125 3.140625 -0.15625 C 3.125 -0.234375 3.078125 -0.234375 2.890625 -0.234375 C 2.765625 -0.234375 2.640625 -0.25 2.5 -0.25 C 2.375 -0.265625 2.296875 -0.265625 2.296875 -0.359375 Z M 3.109375 -3.59375 "/>
</g>
<g id="glyph-16-0">
<path d="M 5.828125 -2.65625 C 5.9375 -2.65625 6.109375 -2.65625 6.109375 -2.84375 C 6.109375 -3.015625 5.90625 -3.015625 5.796875 -3.015625 L 0.78125 -3.015625 C 0.65625 -3.015625 0.46875 -3.015625 0.46875 -2.84375 C 0.46875 -2.65625 0.625 -2.65625 0.75 -2.65625 Z M 5.796875 -0.96875 C 5.90625 -0.96875 6.109375 -0.96875 6.109375 -1.140625 C 6.109375 -1.328125 5.9375 -1.328125 5.828125 -1.328125 L 0.75 -1.328125 C 0.625 -1.328125 0.46875 -1.328125 0.46875 -1.140625 C 0.46875 -0.96875 0.65625 -0.96875 0.78125 -0.96875 Z M 5.796875 -0.96875 "/>
</g>
<g id="glyph-16-1">
<path d="M 2.25 -1.625 C 2.375 -1.75 2.703125 -2.015625 2.84375 -2.125 C 3.328125 -2.578125 3.796875 -3.015625 3.796875 -3.734375 C 3.796875 -4.6875 3 -5.296875 2.015625 -5.296875 C 1.046875 -5.296875 0.421875 -4.578125 0.421875 -3.859375 C 0.421875 -3.46875 0.734375 -3.421875 0.84375 -3.421875 C 1.015625 -3.421875 1.265625 -3.53125 1.265625 -3.84375 C 1.265625 -4.25 0.859375 -4.25 0.765625 -4.25 C 1 -4.84375 1.53125 -5.03125 1.921875 -5.03125 C 2.65625 -5.03125 3.046875 -4.40625 3.046875 -3.734375 C 3.046875 -2.90625 2.46875 -2.296875 1.515625 -1.34375 L 0.515625 -0.296875 C 0.421875 -0.21875 0.421875 -0.203125 0.421875 0 L 3.5625 0 L 3.796875 -1.421875 L 3.546875 -1.421875 C 3.53125 -1.265625 3.46875 -0.875 3.375 -0.71875 C 3.328125 -0.65625 2.71875 -0.65625 2.59375 -0.65625 L 1.171875 -0.65625 Z M 2.25 -1.625 "/>
</g>
<g id="glyph-16-2">
<path d="M 2.65625 1.984375 C 2.71875 1.984375 2.8125 1.984375 2.8125 1.890625 C 2.8125 1.859375 2.8125 1.859375 2.703125 1.75 C 1.609375 0.71875 1.34375 -0.75 1.34375 -1.984375 C 1.34375 -4.28125 2.28125 -5.359375 2.6875 -5.734375 C 2.8125 -5.828125 2.8125 -5.84375 2.8125 -5.875 C 2.8125 -5.921875 2.78125 -5.96875 2.703125 -5.96875 C 2.578125 -5.96875 2.171875 -5.5625 2.109375 -5.5 C 1.046875 -4.375 0.828125 -2.953125 0.828125 -1.984375 C 0.828125 -0.203125 1.5625 1.234375 2.65625 1.984375 Z M 2.65625 1.984375 "/>
</g>
<g id="glyph-16-3">
<path d="M 2.5 -5.078125 C 2.5 -5.296875 2.484375 -5.296875 2.265625 -5.296875 C 1.9375 -4.984375 1.515625 -4.796875 0.765625 -4.796875 L 0.765625 -4.53125 C 0.984375 -4.53125 1.40625 -4.53125 1.875 -4.734375 L 1.875 -0.65625 C 1.875 -0.359375 1.84375 -0.265625 1.09375 -0.265625 L 0.8125 -0.265625 L 0.8125 0 C 1.140625 -0.03125 1.828125 -0.03125 2.1875 -0.03125 C 2.546875 -0.03125 3.234375 -0.03125 3.5625 0 L 3.5625 -0.265625 L 3.28125 -0.265625 C 2.53125 -0.265625 2.5 -0.359375 2.5 -0.65625 Z M 2.5 -5.078125 "/>
</g>
<g id="glyph-16-4">
<path d="M 2.46875 -1.984375 C 2.46875 -2.75 2.328125 -3.65625 1.84375 -4.59375 C 1.453125 -5.328125 0.71875 -5.96875 0.578125 -5.96875 C 0.5 -5.96875 0.484375 -5.921875 0.484375 -5.875 C 0.484375 -5.84375 0.484375 -5.828125 0.578125 -5.734375 C 1.6875 -4.671875 1.9375 -3.21875 1.9375 -1.984375 C 1.9375 0.296875 1 1.375 0.59375 1.75 C 0.484375 1.84375 0.484375 1.859375 0.484375 1.890625 C 0.484375 1.9375 0.5 1.984375 0.578125 1.984375 C 0.703125 1.984375 1.109375 1.578125 1.171875 1.515625 C 2.234375 0.390625 2.46875 -1.03125 2.46875 -1.984375 Z M 2.46875 -1.984375 "/>
</g>
<g id="glyph-16-5">
<path d="M 3.890625 -2.546875 C 3.890625 -3.390625 3.8125 -3.90625 3.546875 -4.421875 C 3.203125 -5.125 2.546875 -5.296875 2.109375 -5.296875 C 1.109375 -5.296875 0.734375 -4.546875 0.625 -4.328125 C 0.34375 -3.75 0.328125 -2.953125 0.328125 -2.546875 C 0.328125 -2.015625 0.34375 -1.21875 0.734375 -0.578125 C 1.09375 0.015625 1.6875 0.171875 2.109375 0.171875 C 2.5 0.171875 3.171875 0.046875 3.578125 -0.734375 C 3.875 -1.3125 3.890625 -2.03125 3.890625 -2.546875 Z M 2.109375 -0.0625 C 1.84375 -0.0625 1.296875 -0.1875 1.125 -1.015625 C 1.03125 -1.46875 1.03125 -2.21875 1.03125 -2.640625 C 1.03125 -3.1875 1.03125 -3.75 1.125 -4.1875 C 1.296875 -5 1.90625 -5.078125 2.109375 -5.078125 C 2.375 -5.078125 2.9375 -4.9375 3.09375 -4.21875 C 3.1875 -3.78125 3.1875 -3.171875 3.1875 -2.640625 C 3.1875 -2.171875 3.1875 -1.453125 3.09375 -1 C 2.921875 -0.171875 2.375 -0.0625 2.109375 -0.0625 Z M 2.109375 -0.0625 "/>
</g>
<g id="glyph-16-6">
<path d="M 1.109375 -4.484375 C 1.21875 -4.453125 1.53125 -4.359375 1.875 -4.359375 C 2.875 -4.359375 3.46875 -5.0625 3.46875 -5.1875 C 3.46875 -5.28125 3.421875 -5.296875 3.375 -5.296875 C 3.359375 -5.296875 3.34375 -5.296875 3.28125 -5.265625 C 2.96875 -5.140625 2.59375 -5.046875 2.171875 -5.046875 C 1.703125 -5.046875 1.3125 -5.15625 1.0625 -5.265625 C 0.984375 -5.296875 0.96875 -5.296875 0.953125 -5.296875 C 0.859375 -5.296875 0.859375 -5.21875 0.859375 -5.0625 L 0.859375 -2.734375 C 0.859375 -2.59375 0.859375 -2.5 0.984375 -2.5 C 1.046875 -2.5 1.0625 -2.53125 1.109375 -2.59375 C 1.203125 -2.703125 1.5 -3.109375 2.1875 -3.109375 C 2.625 -3.109375 2.84375 -2.75 2.921875 -2.59375 C 3.046875 -2.3125 3.0625 -1.9375 3.0625 -1.640625 C 3.0625 -1.34375 3.0625 -0.90625 2.84375 -0.5625 C 2.6875 -0.3125 2.359375 -0.078125 1.9375 -0.078125 C 1.421875 -0.078125 0.921875 -0.390625 0.734375 -0.921875 C 0.75 -0.90625 0.8125 -0.90625 0.8125 -0.90625 C 1.03125 -0.90625 1.21875 -1.046875 1.21875 -1.296875 C 1.21875 -1.59375 0.984375 -1.703125 0.828125 -1.703125 C 0.671875 -1.703125 0.421875 -1.625 0.421875 -1.28125 C 0.421875 -0.5625 1.046875 0.171875 1.953125 0.171875 C 2.953125 0.171875 3.796875 -0.609375 3.796875 -1.59375 C 3.796875 -2.515625 3.125 -3.34375 2.1875 -3.34375 C 1.796875 -3.34375 1.421875 -3.21875 1.109375 -2.9375 Z M 1.109375 -4.484375 "/>
</g>
<g id="glyph-17-0">
<path d="M 5.5625 -1.8125 C 5.703125 -1.8125 5.875 -1.8125 5.875 -1.984375 C 5.875 -2.171875 5.703125 -2.171875 5.5625 -2.171875 L 1 -2.171875 C 0.875 -2.171875 0.703125 -2.171875 0.703125 -1.984375 C 0.703125 -1.8125 0.875 -1.8125 1 -1.8125 Z M 5.5625 -1.8125 "/>
</g>
</g>
<clipPath id="clip-0">
<path clip-rule="nonzero" d="M 215 0.0507812 L 273 0.0507812 L 273 28 L 215 28 Z M 215 0.0507812 "/>
</clipPath>
</defs>
<path fill="none" stroke-width="0.3985" stroke-linecap="butt" stroke-linejoin="miter" stroke="rgb(0%, 0%, 0%)" stroke-opacity="1" stroke-miterlimit="10" d="M 20.685513 7.050322 L -20.685355 7.050322 C -21.783627 7.050322 -22.67866 6.155288 -22.67866 5.057016 L -22.67866 -5.054126 C -22.67866 -6.156307 -21.783627 -7.047432 -20.685355 -7.047432 L 20.685513 -7.047432 C 21.783785 -7.047432 22.678819 -6.156307 22.678819 -5.054126 L 22.678819 5.057016 C 22.678819 6.155288 21.783785 7.050322 20.685513 7.050322 Z M 20.685513 7.050322 " transform="matrix(0.999439, 0, 0, -0.999439, 28.837812, 110.358866)"/>
<g fill="rgb(0%, 0%, 0%)" fill-opacity="1">
<use xlink:href="#glyph-0-0" x="25.769534" y="113.420147"/>
</g>
<path fill="none" stroke-width="0.3985" stroke-linecap="butt" stroke-linejoin="miter" stroke="rgb(0%, 0%, 0%)" stroke-opacity="1" stroke-miterlimit="10" d="M 122.734955 55.237513 L 81.364087 55.237513 C 80.261907 55.237513 79.370782 54.346388 79.370782 53.244207 L 79.370782 43.133066 C 79.370782 42.034793 80.261907 41.13976 81.364087 41.13976 L 122.734955 41.13976 C 123.833227 41.13976 124.724352 42.034793 124.724352 43.133066 L 124.724352 53.244207 C 124.724352 54.346388 123.833227 55.237513 122.734955 55.237513 Z M 122.734955 55.237513 " transform="matrix(0.999439, 0, 0, -0.999439, 28.837812, 110.358866)"/>
<g fill="rgb(0%, 0%, 0%)" fill-opacity="1">
<use xlink:href="#glyph-0-0" x="125.109768" y="65.258184"/>
</g>
<g fill="rgb(0%, 0%, 0%)" fill-opacity="1">
<use xlink:href="#glyph-0-1" x="131.246514" y="65.258184"/>
</g>
<path fill="none" stroke-width="0.3985" stroke-linecap="butt" stroke-linejoin="miter" stroke="rgb(0%, 0%, 0%)" stroke-opacity="1" stroke-miterlimit="10" d="M 122.734955 -41.089969 L 81.364087 -41.089969 C 80.261907 -41.089969 79.370782 -41.985002 79.370782 -43.083274 L 79.370782 -53.296036 C 79.370782 -54.394308 80.261907 -55.289341 81.364087 -55.289341 L 122.734955 -55.289341 C 123.833227 -55.289341 124.724352 -54.394308 124.724352 -53.296036 L 124.724352 -43.083274 C 124.724352 -41.985002 123.833227 -41.089969 122.734955 -41.089969 Z M 122.734955 -41.089969 " transform="matrix(0.999439, 0, 0, -0.999439, 28.837812, 110.358866)"/>
<g fill="rgb(0%, 0%, 0%)" fill-opacity="1">
<use xlink:href="#glyph-0-0" x="125.37362" y="161.632083"/>
</g>
<g fill="rgb(0%, 0%, 0%)" fill-opacity="1">
<use xlink:href="#glyph-0-2" x="131.510366" y="161.632083"/>
</g>
<g clip-path="url(#clip-0)">
<path fill="none" stroke-width="0.3985" stroke-linecap="butt" stroke-linejoin="miter" stroke="rgb(0%, 0%, 0%)" stroke-opacity="1" stroke-miterlimit="10" d="M 236.118881 104.194668 L 194.751922 104.194668 C 193.649741 104.194668 192.758616 103.303543 192.758616 102.201362 L 192.758616 90.554202 C 192.758616 89.45593 193.649741 88.564805 194.751922 88.564805 L 236.118881 88.564805 C 237.221062 88.564805 238.112187 89.45593 238.112187 90.554202 L 238.112187 102.201362 C 238.112187 103.303543 237.221062 104.194668 236.118881 104.194668 Z M 236.118881 104.194668 " transform="matrix(0.999439, 0, 0, -0.999439, 28.837812, 110.358866)"/>
</g>
<g fill="rgb(0%, 0%, 0%)" fill-opacity="1">
<use xlink:href="#glyph-0-0" x="236.357318" y="17.86279"/>
</g>
<g fill="rgb(0%, 0%, 0%)" fill-opacity="1">
<use xlink:href="#glyph-0-1" x="242.494064" y="17.86279"/>
</g>
<g fill="rgb(0%, 0%, 0%)" fill-opacity="1">
<use xlink:href="#glyph-1-0" x="247.793898" y="14.055927"/>
</g>
<path fill="none" stroke-width="0.3985" stroke-linecap="butt" stroke-linejoin="miter" stroke="rgb(0%, 0%, 0%)" stroke-opacity="1" stroke-miterlimit="10" d="M 236.118881 7.097223 L 194.751922 7.097223 C 193.649741 7.097223 192.758616 6.206098 192.758616 5.107825 L 192.758616 -5.104936 C 192.758616 -6.207117 193.649741 -7.098241 194.751922 -7.098241 L 236.118881 -7.098241 C 237.221062 -7.098241 238.112187 -6.207117 238.112187 -5.104936 L 238.112187 5.107825 C 238.112187 6.206098 237.221062 7.097223 236.118881 7.097223 Z M 236.118881 7.097223 " transform="matrix(0.999439, 0, 0, -0.999439, 28.837812, 110.358866)"/>
<g fill="rgb(0%, 0%, 0%)" fill-opacity="1">
<use xlink:href="#glyph-0-0" x="236.046493" y="113.470119"/>
</g>
<g fill="rgb(0%, 0%, 0%)" fill-opacity="1">
<use xlink:href="#glyph-0-1" x="242.183238" y="113.470119"/>
<use xlink:href="#glyph-0-2" x="247.482992" y="113.470119"/>
</g>
<path fill="none" stroke-width="0.3985" stroke-linecap="butt" stroke-linejoin="miter" stroke="rgb(0%, 0%, 0%)" stroke-opacity="1" stroke-miterlimit="10" d="M 236.118881 -88.561915 L 194.751922 -88.561915 C 193.649741 -88.561915 192.758616 -89.456949 192.758616 -90.555221 L 192.758616 -102.202381 C 192.758616 -103.304561 193.649741 -104.195686 194.751922 -104.195686 L 236.118881 -104.195686 C 237.221062 -104.195686 238.112187 -103.304561 238.112187 -102.202381 L 238.112187 -90.555221 C 238.112187 -89.456949 237.221062 -88.561915 236.118881 -88.561915 Z M 236.118881 -88.561915 " transform="matrix(0.999439, 0, 0, -0.999439, 28.837812, 110.358866)"/>
<g fill="rgb(0%, 0%, 0%)" fill-opacity="1">
<use xlink:href="#glyph-0-0" x="236.622169" y="210.510645"/>
</g>
<g fill="rgb(0%, 0%, 0%)" fill-opacity="1">
<use xlink:href="#glyph-0-2" x="242.758915" y="210.510645"/>
</g>
<g fill="rgb(0%, 0%, 0%)" fill-opacity="1">
<use xlink:href="#glyph-1-0" x="247.530046" y="206.703782"/>
</g>
<path fill="none" stroke-width="0.3985" stroke-linecap="butt" stroke-linejoin="miter" stroke="rgb(0%, 0%, 0%)" stroke-opacity="1" stroke-miterlimit="10" d="M 15.342671 7.249652 L 84.909045 40.092297 " transform="matrix(0.999439, 0, 0, -0.999439, 28.837812, 110.358866)"/>
<path fill-rule="nonzero" fill="rgb(0%, 0%, 0%)" fill-opacity="1" d="M 115.5 69.441406 L 111.9375 69.359375 L 113.699219 70.289062 L 113.296875 72.242188 "/>
<g fill="rgb(0%, 0%, 0%)" fill-opacity="1">
<use xlink:href="#glyph-2-0" x="75.746479" y="82.605446"/>
</g>
<path fill="none" stroke-width="0.3985" stroke-linecap="butt" stroke-linejoin="miter" stroke="rgb(0%, 0%, 0%)" stroke-opacity="1" stroke-miterlimit="10" d="M 15.342671 -7.246762 L 84.803517 -40.042506 " transform="matrix(0.999439, 0, 0, -0.999439, 28.837812, 110.358866)"/>
<path fill-rule="nonzero" fill="rgb(0%, 0%, 0%)" fill-opacity="1" d="M 115.394531 151.226562 L 113.191406 148.425781 L 113.59375 150.378906 L 111.832031 151.308594 "/>
<g fill="rgb(0%, 0%, 0%)" fill-opacity="1">
<use xlink:href="#glyph-3-0" x="67.573067" y="138.216228"/>
</g>
<g fill="rgb(0%, 0%, 0%)" fill-opacity="1">
<use xlink:href="#glyph-4-0" x="73.100296" y="140.825683"/>
</g>
<g fill="rgb(0%, 0%, 0%)" fill-opacity="1">
<use xlink:href="#glyph-5-0" x="80.754008" y="144.439071"/>
</g>
<path fill="none" stroke-width="0.3985" stroke-linecap="butt" stroke-linejoin="miter" stroke="rgb(0%, 0%, 0%)" stroke-opacity="1" stroke-miterlimit="10" d="M 119.104011 55.436844 L 194.755831 87.583786 " transform="matrix(0.999439, 0, 0, -0.999439, 28.837812, 110.358866)"/>
<path fill-rule="nonzero" fill="rgb(0%, 0%, 0%)" fill-opacity="1" d="M 225.316406 22.042969 L 221.761719 21.824219 L 223.484375 22.824219 L 223.007812 24.757812 "/>
<g fill="rgb(0%, 0%, 0%)" fill-opacity="1">
<use xlink:href="#glyph-6-0" x="182.651467" y="34.669355"/>
</g>
<path fill="none" stroke-width="0.3985" stroke-linecap="butt" stroke-linejoin="miter" stroke="rgb(0%, 0%, 0%)" stroke-opacity="1" stroke-miterlimit="10" d="M 119.096194 40.940429 L 196.444278 8.078242 " transform="matrix(0.999439, 0, 0, -0.999439, 28.837812, 110.358866)"/>
<path fill-rule="nonzero" fill="rgb(0%, 0%, 0%)" fill-opacity="1" d="M 227.003906 103.066406 L 224.691406 100.351562 L 225.171875 102.285156 L 223.449219 103.285156 "/>
<g fill="rgb(0%, 0%, 0%)" fill-opacity="1">
<use xlink:href="#glyph-7-0" x="175.382547" y="90.531996"/>
</g>
<g fill="rgb(0%, 0%, 0%)" fill-opacity="1">
<use xlink:href="#glyph-8-0" x="181.00825" y="92.922316"/>
</g>
<g fill="rgb(0%, 0%, 0%)" fill-opacity="1">
<use xlink:href="#glyph-9-0" x="188.797401" y="96.23187"/>
</g>
<path fill="none" stroke-width="0.3985" stroke-linecap="butt" stroke-linejoin="miter" stroke="rgb(0%, 0%, 0%)" stroke-opacity="1" stroke-miterlimit="10" d="M 119.213448 -40.890638 L 196.444278 -8.075352 " transform="matrix(0.999439, 0, 0, -0.999439, 28.837812, 110.358866)"/>
<path fill-rule="nonzero" fill="rgb(0%, 0%, 0%)" fill-opacity="1" d="M 227.003906 117.652344 L 223.449219 117.433594 L 225.171875 118.429688 L 224.691406 120.363281 "/>
<g fill="rgb(0%, 0%, 0%)" fill-opacity="1">
<use xlink:href="#glyph-10-0" x="183.549962" y="130.609498"/>
</g>
<path fill="none" stroke-width="0.3985" stroke-linecap="butt" stroke-linejoin="miter" stroke="rgb(0%, 0%, 0%)" stroke-opacity="1" stroke-miterlimit="10" d="M 119.221265 -55.488672 L 194.755831 -87.584804 " transform="matrix(0.999439, 0, 0, -0.999439, 28.837812, 110.358866)"/>
<path fill-rule="nonzero" fill="rgb(0%, 0%, 0%)" fill-opacity="1" d="M 225.316406 198.671875 L 223.007812 195.960938 L 223.484375 197.894531 L 221.761719 198.894531 "/>
<g fill="rgb(0%, 0%, 0%)" fill-opacity="1">
<use xlink:href="#glyph-11-0" x="174.600986" y="186.522111"/>
</g>
<g fill="rgb(0%, 0%, 0%)" fill-opacity="1">
<use xlink:href="#glyph-12-0" x="180.226566" y="188.912553"/>
</g>
<g fill="rgb(0%, 0%, 0%)" fill-opacity="1">
<use xlink:href="#glyph-13-0" x="188.015548" y="192.222276"/>
</g>
<g fill="rgb(0%, 0%, 0%)" fill-opacity="1">
<use xlink:href="#glyph-14-0" x="279.030363" y="16.591503"/>
</g>
<g fill="rgb(0%, 0%, 0%)" fill-opacity="1">
<use xlink:href="#glyph-15-0" x="283.290971" y="17.929752"/>
</g>
<g fill="rgb(0%, 0%, 0%)" fill-opacity="1">
<use xlink:href="#glyph-16-0" x="291.475377" y="16.591503"/>
</g>
<g fill="rgb(0%, 0%, 0%)" fill-opacity="1">
<use xlink:href="#glyph-14-0" x="300.409362" y="16.591503"/>
</g>
<g fill="rgb(0%, 0%, 0%)" fill-opacity="1">
<use xlink:href="#glyph-1-0" x="304.66997" y="13.780082"/>
</g>
<g fill="rgb(0%, 0%, 0%)" fill-opacity="1">
<use xlink:href="#glyph-14-0" x="279.030363" y="112.349748"/>
</g>
<g fill="rgb(0%, 0%, 0%)" fill-opacity="1">
<use xlink:href="#glyph-15-0" x="283.290971" y="113.688997"/>
</g>
<g fill="rgb(0%, 0%, 0%)" fill-opacity="1">
<use xlink:href="#glyph-16-0" x="291.475377" y="112.349748"/>
</g>
<g fill="rgb(0%, 0%, 0%)" fill-opacity="1">
<use xlink:href="#glyph-16-1" x="300.408033" y="112.349748"/>
</g>
<g fill="rgb(0%, 0%, 0%)" fill-opacity="1">
<use xlink:href="#glyph-14-0" x="304.640986" y="112.349748"/>
</g>
<g fill="rgb(0%, 0%, 0%)" fill-opacity="1">
<use xlink:href="#glyph-16-2" x="308.901595" y="112.349748"/>
<use xlink:href="#glyph-16-3" x="312.192992" y="112.349748"/>
</g>
<g fill="rgb(0%, 0%, 0%)" fill-opacity="1">
<use xlink:href="#glyph-17-0" x="318.305316" y="112.349748"/>
</g>
<g fill="rgb(0%, 0%, 0%)" fill-opacity="1">
<use xlink:href="#glyph-14-0" x="326.769564" y="112.349748"/>
</g>
<g fill="rgb(0%, 0%, 0%)" fill-opacity="1">
<use xlink:href="#glyph-16-4" x="331.030172" y="112.349748"/>
</g>
<g fill="rgb(0%, 0%, 0%)" fill-opacity="1">
<use xlink:href="#glyph-14-0" x="279.030363" y="209.017483"/>
</g>
<g fill="rgb(0%, 0%, 0%)" fill-opacity="1">
<use xlink:href="#glyph-15-0" x="283.290971" y="210.355732"/>
</g>
<g fill="rgb(0%, 0%, 0%)" fill-opacity="1">
<use xlink:href="#glyph-16-0" x="291.475377" y="209.017483"/>
</g>
<g fill="rgb(0%, 0%, 0%)" fill-opacity="1">
<use xlink:href="#glyph-16-2" x="300.408033" y="209.017483"/>
<use xlink:href="#glyph-16-3" x="303.69943" y="209.017483"/>
</g>
<g fill="rgb(0%, 0%, 0%)" fill-opacity="1">
<use xlink:href="#glyph-17-0" x="309.814082" y="209.017483"/>
</g>
<g fill="rgb(0%, 0%, 0%)" fill-opacity="1">
<use xlink:href="#glyph-14-0" x="318.277331" y="209.017483"/>
</g>
<g fill="rgb(0%, 0%, 0%)" fill-opacity="1">
<use xlink:href="#glyph-16-4" x="322.53794" y="209.017483"/>
</g>
<g fill="rgb(0%, 0%, 0%)" fill-opacity="1">
<use xlink:href="#glyph-1-0" x="325.829092" y="206.206061"/>
</g>
<g fill="rgb(0%, 0%, 0%)" fill-opacity="1">
<use xlink:href="#glyph-14-1" x="19.551025" y="237.579449"/>
</g>
<g fill="rgb(0%, 0%, 0%)" fill-opacity="1">
<use xlink:href="#glyph-16-0" x="24.958989" y="237.579449"/>
</g>
<g fill="rgb(0%, 0%, 0%)" fill-opacity="1">
<use xlink:href="#glyph-16-5" x="33.891645" y="237.579449"/>
</g>
<g fill="rgb(0%, 0%, 0%)" fill-opacity="1">
<use xlink:href="#glyph-14-1" x="118.249619" y="237.579449"/>
</g>
<g fill="rgb(0%, 0%, 0%)" fill-opacity="1">
<use xlink:href="#glyph-16-0" x="123.657583" y="237.579449"/>
</g>
<g fill="rgb(0%, 0%, 0%)" fill-opacity="1">
<use xlink:href="#glyph-16-5" x="132.590239" y="237.579449"/>
</g>
<g fill="rgb(0%, 0%, 0%)" fill-opacity="1">
<use xlink:href="#glyph-14-2" x="136.823193" y="237.579449"/>
</g>
<g fill="rgb(0%, 0%, 0%)" fill-opacity="1">
<use xlink:href="#glyph-16-6" x="139.173873" y="237.579449"/>
</g>
<g fill="rgb(0%, 0%, 0%)" fill-opacity="1">
<use xlink:href="#glyph-14-1" x="234.863157" y="237.579449"/>
</g>
<g fill="rgb(0%, 0%, 0%)" fill-opacity="1">
<use xlink:href="#glyph-16-0" x="240.271121" y="237.579449"/>
</g>
<g fill="rgb(0%, 0%, 0%)" fill-opacity="1">
<use xlink:href="#glyph-16-3" x="249.203777" y="237.579449"/>
</g>
</svg>
